#tb 0: 1/25
0,          0,          0,        1,    38016, 0xc805351d
0,          1,          1,        1,    38016, 0x3017107e
0,          2,          2,        1,    38016, 0xe172e2d2
0,          3,          3,        1,    38016, 0x7fefbb5b
0,          4,          4,        1,    38016, 0x331097e6
0,          5,          5,        1,    38016, 0x47de825a
0,          6,          6,        1,    38016, 0x0bf36d87
0,          7,          7,        1,    38016, 0x03ae60c5
0,          8,          8,        1,    38016, 0x986b5930
0,          9,          9,        1,    38016, 0x398b6450
0,         10,         10,        1,    38016, 0x8e1b77e7
0,         11,         11,        1,    38016, 0xefb198a6
0,         12,         12,        1,    38016, 0x395aa9ee
0,         13,         13,        1,    38016, 0x1918b963
0,         14,         14,        1,    38016, 0xe6cab421
0,         15,         15,        1,    38016, 0x96929e05
0,         16,         16,        1,    38016, 0xf076abc7
0,         17,         17,        1,    38016, 0xd0f4ab70
0,         18,         18,        1,    38016, 0x7a39a75c
0,         19,         19,        1,    38016, 0xb04f8bad
0,         20,         20,        1,    38016, 0xe4996ff5
0,         21,         21,        1,    38016, 0x096e549a
0,         22,         22,        1,    38016, 0x36d73f1a
0,         23,         23,        1,    38016, 0x25f53bbf
0,         24,         24,        1,    38016, 0x7ebd3f9f
0,         25,         25,        1,    38016, 0x464c4b4c
0,         26,         26,        1,    38016, 0x2d794a40
0,         27,         27,        1,    38016, 0x1599532d
0,         28,         28,        1,    38016, 0xf8326999
0,         29,         29,        1,    38016, 0x858e789b
0,         30,         30,        1,    38016, 0x006f63cc
0,         31,         31,        1,    38016, 0x488a9614
0,         32,         32,        1,    38016, 0x950fb7cc
0,         33,         33,        1,    38016, 0x6deac9dd
0,         34,         34,        1,    38016, 0x0a82d725
0,         35,         35,        1,    38016, 0x2702d5fe
0,         36,         36,        1,    38016, 0xf7ead782
0,         37,         37,        1,    38016, 0x560fd1f1
0,         38,         38,        1,    38016, 0xa3cdd31a
0,         39,         39,        1,    38016, 0xa19ed45c
0,         40,         40,        1,    38016, 0x8d85d757
0,         41,         41,        1,    38016, 0x7fa6e1b5
0,         42,         42,        1,    38016, 0x8a31db0e
0,         43,         43,        1,    38016, 0x9dead6ff
0,         44,         44,        1,    38016, 0x8a8adf44
0,         45,         45,        1,    38016, 0xd1548835
0,         46,         46,        1,    38016, 0xf696a62c
0,         47,         47,        1,    38016, 0x5edbb219
0,         48,         48,        1,    38016, 0x0d9db749
0,         49,         49,        1,    38016, 0xc109c379
0,         50,         50,        1,    38016, 0xe814c2b1
0,         51,         51,        1,    38016, 0x4a8dc84b
0,         52,         52,        1,    38016, 0x6bcac28c
0,         53,         53,        1,    38016, 0xa37ec8da
0,         54,         54,        1,    38016, 0x3202d5e9
0,         55,         55,        1,    38016, 0x3d65ddb6
0,         56,         56,        1,    38016, 0x165de082
0,         57,         57,        1,    38016, 0x5702e231
0,         58,         58,        1,    38016, 0x034fe8f4
0,         59,         59,        1,    38016, 0x96f0ea58
0,         60,         60,        1,    38016, 0x65539ad7
0,         61,         61,        1,    38016, 0xdf98a7cf
0,         62,         62,        1,    38016, 0xda007de0
0,         63,         63,        1,    38016, 0xdf43520e
0,         64,         64,        1,    38016, 0xc5d553d2
0,         65,         65,        1,    38016, 0xc3327450
0,         66,         66,        1,    38016, 0x81c4a2e0
0,         67,         67,        1,    38016, 0x7c56e2d1
0,         68,         68,        1,    38016, 0x813f20a4
0,         69,         69,        1,    38016, 0xe48257ad
0,         70,         70,        1,    38016, 0x261b812f
0,         71,         71,        1,    38016, 0x8836ae43
0,         72,         72,        1,    38016, 0x4c52e30f
0,         73,         73,        1,    38016, 0x0614245f
0,         74,         74,        1,    38016, 0xbf275e2e
0,         75,         75,        1,    38016, 0x2f0f3e49
0,         76,         76,        1,    38016, 0xfaf57eb1
0,         77,         77,        1,    38016, 0xd1b49f95
0,         78,         78,        1,    38016, 0x10f4c2f6
0,         79,         79,        1,    38016, 0x2322d359
0,         80,         80,        1,    38016, 0x994de596
0,         81,         81,        1,    38016, 0x2a0df115
0,         82,         82,        1,    38016, 0xfcb7f1ec
0,         83,         83,        1,    38016, 0xcbc2ee10
0,         84,         84,        1,    38016, 0x49f5ee5c
0,         85,         85,        1,    38016, 0x4eb9f286
0,         86,         86,        1,    38016, 0xe5d80039
0,         87,         87,        1,    38016, 0xfa57fa81
0,         88,         88,        1,    38016, 0x2bea01f7
0,         89,         89,        1,    38016, 0x4e7c07a0
0,         90,         90,        1,    38016, 0x43b6a0f7
0,         91,         91,        1,    38016, 0x996e93cc
0,         92,         92,        1,    38016, 0x8e5c8a40
0,         93,         93,        1,    38016, 0x15cc7fe7
0,         94,         94,        1,    38016, 0x7f0a6c35
0,         95,         95,        1,    38016, 0x031677a4
0,         96,         96,        1,    38016, 0x14dd8b6d
0,         97,         97,        1,    38016, 0x143ca592
0,         98,         98,        1,    38016, 0x8e56b262
0,         99,         99,        1,    38016, 0x01c7c2b9
0,        100,        100,        1,    38016, 0xc117cbfa
0,        101,        101,        1,    38016, 0x609bbe4b
0,        102,        102,        1,    38016, 0x9a9fad05
0,        103,        103,        1,    38016, 0xba959d79
0,        104,        104,        1,    38016, 0x8773c00e
0,        105,        105,        1,    38016, 0xea22a35b
0,        106,        106,        1,    38016, 0x4b76c5fa
0,        107,        107,        1,    38016, 0x5088e610
0,        108,        108,        1,    38016, 0xb6db1234
0,        109,        109,        1,    38016, 0xef631cf7
0,        110,        110,        1,    38016, 0x7d993030
0,        111,        111,        1,    38016, 0xa9b24013
0,        112,        112,        1,    38016, 0xc3a14055
0,        113,        113,        1,    38016, 0x5e7e2b4c
0,        114,        114,        1,    38016, 0xae3505e0
0,        115,        115,        1,    38016, 0x48880369
0,        116,        116,        1,    38016, 0x844e1316
0,        117,        117,        1,    38016, 0x1d501951
0,        118,        118,        1,    38016, 0x36ae2e34
0,        119,        119,        1,    38016, 0xe48b385f
0,        120,        120,        1,    38016, 0xd88d3691
0,        121,        121,        1,    38016, 0xf38f3ad4
0,        122,        122,        1,    38016, 0x2a0e256e
0,        123,        123,        1,    38016, 0x0c25fbbd
0,        124,        124,        1,    38016, 0x13dbd8fc
0,        125,        125,        1,    38016, 0x8c4dc0b1
0,        126,        126,        1,    38016, 0x054bb5d5
0,        127,        127,        1,    38016, 0x19f8c259
0,        128,        128,        1,    38016, 0x4037d8fd
0,        129,        129,        1,    38016, 0x13f4ecda
0,        130,        130,        1,    38016, 0xde8af5a1
0,        131,        131,        1,    38016, 0x5997f541
0,        132,        132,        1,    38016, 0x876bebfe
0,        133,        133,        1,    38016, 0x7322ef36
0,        134,        134,        1,    38016, 0xe6a7ecc3
0,        135,        135,        1,    38016, 0x20e5a1eb
0,        136,        136,        1,    38016, 0xd1e5b985
0,        137,        137,        1,    38016, 0xe83cb437
0,        138,        138,        1,    38016, 0x8928a6f2
0,        139,        139,        1,    38016, 0xc6b1a7f4
0,        140,        140,        1,    38016, 0xcaf79531
0,        141,        141,        1,    38016, 0x3ded956e
0,        142,        142,        1,    38016, 0x494b82c5
0,        143,        143,        1,    38016, 0x86cb794a
0,        144,        144,        1,    38016, 0x548687e6
0,        145,        145,        1,    38016, 0x8f478a9f
0,        146,        146,        1,    38016, 0x32a97cbb
0,        147,        147,        1,    38016, 0x587b56cf
0,        148,        148,        1,    38016, 0x933428a9
0,        149,        149,        1,    38016, 0xcb610212
0,        150,        150,        1,    38016, 0x0d27b12d
0,        151,        151,        1,    38016, 0xf5a9b7e0
0,        152,        152,        1,    38016, 0x5287bdb7
0,        153,        153,        1,    38016, 0xa4e9b762
0,        154,        154,        1,    38016, 0x289da6d8
0,        155,        155,        1,    38016, 0x1969bb3e
0,        156,        156,        1,    38016, 0x29cbe019
0,        157,        157,        1,    38016, 0xe01403c6
0,        158,        158,        1,    38016, 0xce003f90
0,        159,        159,        1,    38016, 0x455d67e1
0,        160,        160,        1,    38016, 0xb57f7724
0,        161,        161,        1,    38016, 0x7fce73b9
0,        162,        162,        1,    38016, 0x7f136bbe
0,        163,        163,        1,    38016, 0xf096599f
0,        164,        164,        1,    38016, 0xe6df4c3a
0,        165,        165,        1,    38016, 0x98d2f70e
0,        166,        166,        1,    38016, 0xb500f2d7
0,        167,        167,        1,    38016, 0x95d3ce30
0,        168,        168,        1,    38016, 0x02a9ae41
0,        169,        169,        1,    38016, 0xb146a958
0,        170,        170,        1,    38016, 0x86a0bf3d
0,        171,        171,        1,    38016, 0x0c58d90a
0,        172,        172,        1,    38016, 0x27aef37f
0,        173,        173,        1,    38016, 0x3933fc3e
0,        174,        174,        1,    38016, 0x9ce9dc1c
0,        175,        175,        1,    38016, 0x3161ac45
0,        176,        176,        1,    38016, 0x4e8174cd
0,        177,        177,        1,    38016, 0xd8904d4b
0,        178,        178,        1,    38016, 0x933c2a55
0,        179,        179,        1,    38016, 0x85371555
0,        180,        180,        1,    38016, 0x3bb3ecd3
0,        181,        181,        1,    38016, 0x6b6ad873
0,        182,        182,        1,    38016, 0xa04dcf64
0,        183,        183,        1,    38016, 0x7869dc82
0,        184,        184,        1,    38016, 0x1c11e371
0,        185,        185,        1,    38016, 0x91eef557
0,        186,        186,        1,    38016, 0x27a30e42
0,        187,        187,        1,    38016, 0xcba73491
0,        188,        188,        1,    38016, 0xdffc402e
0,        189,        189,        1,    38016, 0x49b543c6
0,        190,        190,        1,    38016, 0xe3f7f438
0,        191,        191,        1,    38016, 0xed3ec663
0,        192,        192,        1,    38016, 0x174ad199
0,        193,        193,        1,    38016, 0x5330eef8
0,        194,        194,        1,    38016, 0x19d9074b
0,        195,        195,        1,    38016, 0x25961ad1
0,        196,        196,        1,    38016, 0x63024e80
0,        197,        197,        1,    38016, 0x25de6e2e
0,        198,        198,        1,    38016, 0x4cc594e8
0,        199,        199,        1,    38016, 0x8b25afcf
0,        200,        200,        1,    38016, 0x7b29bfcf
0,        201,        201,        1,    38016, 0x93abce16
0,        202,        202,        1,    38016, 0xc7f1d8fb
0,        203,        203,        1,    38016, 0x277ed79e
0,        204,        204,        1,    38016, 0x30dbdfe4
0,        205,        205,        1,    38016, 0xbd8be711
0,        206,        206,        1,    38016, 0xf072ea62
0,        207,        207,        1,    38016, 0xbfd0e5a5
0,        208,        208,        1,    38016, 0xedffdb3d
0,        209,        209,        1,    38016, 0x5238cb59
0,        210,        210,        1,    38016, 0x39305ec1
0,        211,        211,        1,    38016, 0x07816d20
0,        212,        212,        1,    38016, 0x61416e5b
0,        213,        213,        1,    38016, 0xc39d6ae2
0,        214,        214,        1,    38016, 0x1de95fe1
0,        215,        215,        1,    38016, 0x0530552f
0,        216,        216,        1,    38016, 0xa48f5b19
0,        217,        217,        1,    38016, 0x11305e31
0,        218,        218,        1,    38016, 0x9ae25bda
0,        219,        219,        1,    38016, 0xf16e5b67
0,        220,        220,        1,    38016, 0x9a375284
0,        221,        221,        1,    38016, 0x5a744019
0,        222,        222,        1,    38016, 0x811631e5
0,        223,        223,        1,    38016, 0x178a20e6
0,        224,        224,        1,    38016, 0xcab02bf2
0,        225,        225,        1,    38016, 0x6fca13cb
0,        226,        226,        1,    38016, 0xa1a71ba8
0,        227,        227,        1,    38016, 0x95f52de5
0,        228,        228,        1,    38016, 0xd2744451
0,        229,        229,        1,    38016, 0x717f6ef6
0,        230,        230,        1,    38016, 0x1f9e8ca9
0,        231,        231,        1,    38016, 0xc931b115
0,        232,        232,        1,    38016, 0xa4c1db05
0,        233,        233,        1,    38016, 0x92e80cc1
0,        234,        234,        1,    38016, 0x5ac5276c
0,        235,        235,        1,    38016, 0x624340ca
0,        236,        236,        1,    38016, 0x774a5a7c
0,        237,        237,        1,    38016, 0x1da55863
0,        238,        238,        1,    38016, 0x1bbc3b98
0,        239,        239,        1,    38016, 0x953b1479
0,        240,        240,        1,    38016, 0x8b11e5a8
0,        241,        241,        1,    38016, 0xf749d359
0,        242,        242,        1,    38016, 0xb54fcb8a
0,        243,        243,        1,    38016, 0xb64b1951
0,        244,        244,        1,    38016, 0x99778550
0,        245,        245,        1,    38016, 0x5e70e9e2
0,        246,        246,        1,    38016, 0x22550b80
0,        247,        247,        1,    38016, 0xfe3ddcde
0,        248,        248,        1,    38016, 0x1e28989e
0,        249,        249,        1,    38016, 0x25b926a4
0,        250,        250,        1,    38016, 0xf2c3c536
0,        251,        251,        1,    38016, 0x534a8643
0,        252,        252,        1,    38016, 0xf44b7f07
0,        253,        253,        1,    38016, 0x2873c895
0,        254,        254,        1,    38016, 0x67a7388d
0,        255,        255,        1,    38016, 0x0e5eca3b
0,        256,        256,        1,    38016, 0xc50dc747
0,        257,        257,        1,    38016, 0x6a3a4f1e
0,        258,        258,        1,    38016, 0x77d83b5f
0,        259,        259,        1,    38016, 0x91213d43
0,        260,        260,        1,    38016, 0x28344889
0,        261,        261,        1,    38016, 0xd1155a3f
0,        262,        262,        1,    38016, 0x5c7a65c5
0,        263,        263,        1,    38016, 0x3d4e7104
0,        264,        264,        1,    38016, 0x91d96a37
0,        265,        265,        1,    38016, 0xbc7f63f3
0,        266,        266,        1,    38016, 0x79275184
0,        267,        267,        1,    38016, 0xa6b43348
0,        268,        268,        1,    38016, 0x9e1d105a
0,        269,        269,        1,    38016, 0x14bce053
0,        270,        270,        1,    38016, 0x0ce3a7ca
0,        271,        271,        1,    38016, 0x4b5980fe
0,        272,        272,        1,    38016, 0x32745e1c
0,        273,        273,        1,    38016, 0x85b91358
0,        274,        274,        1,    38016, 0x9e26c66c
0,        275,        275,        1,    38016, 0x9735b157
0,        276,        276,        1,    38016, 0xfeaac3d1
0,        277,        277,        1,    38016, 0x8c95ca9f
0,        278,        278,        1,    38016, 0x1336fa92
0,        279,        279,        1,    38016, 0x37bb65f8
0,        280,        280,        1,    38016, 0x830c078a
0,        281,        281,        1,    38016, 0x088dd912
0,        282,        282,        1,    38016, 0x8ef1a5a0
0,        283,        283,        1,    38016, 0x9a1e642d
0,        284,        284,        1,    38016, 0xa165517e
0,        285,        285,        1,    38016, 0x0a34a67f
0,        286,        286,        1,    38016, 0xaf0a662a
0,        287,        287,        1,    38016, 0x3a5fa553
0,        288,        288,        1,    38016, 0xda92b1f8
0,        289,        289,        1,    38016, 0xac2997f4
0,        290,        290,        1,    38016, 0x5df32cfc
0,        291,        291,        1,    38016, 0x5cea491d
0,        292,        292,        1,    38016, 0xeafbd139
0,        293,        293,        1,    38016, 0x9ced0e69
0,        294,        294,        1,    38016, 0x89514e3f
0,        295,        295,        1,    38016, 0x3f0b4842
0,        296,        296,        1,    38016, 0xc9902325
0,        297,        297,        1,    38016, 0xdb3e1585
0,        298,        298,        1,    38016, 0x3cf31e95
0,        299,        299,        1,    38016, 0x60f14679
